<svg id="Layer_1" data-name="Layer 1" xmlns="http://www.w3.org/2000/svg" width="85.259in" height="49.888in" viewBox="0 0 6138.65 3591.924">
  <title>tabletop</title>
  <g>
    <polygon points="4.5 1138.703 662.362 1138.689 715.17 1385.136 552.731 1601.714 806.72 2109.697 1147.5 2253.185 1147.5 2569.689 4.5 2569.703 4.5 1138.703" style="fill: #fff"/>
    <path d="M658.724,65.993l51.617,240.885L550.8,519.593l-3.337,4.45,2.488,4.975,252,504.007,1.489,2.978,3.068,1.292L1143,1178.976v309.018L9,1488.007v-1422l649.724-.014m7.276-9L0,57.007v1440l1152-.014V1173L810,1029,558,524.993,720,309,666,56.993h0Z" transform="translate(0 1077.196)" style="fill: #231f20"/>
  </g>
  <path d="M5700.833,948.691v234h-990v-234h990m9-9h-1008v252h1008v-252h0Z" transform="translate(0 1077.196)" style="fill: #231f20"/>
  <path d="M3989.6,66V300h-990V66h990m9-9h-1008V309h1008V57h0Z" transform="translate(0 1077.196)" style="fill: #231f20"/>
  <path d="M3989.6,930.691v270h-990v-270h990m9-9h-1008v288h1008v-288h0Z" transform="translate(0 1077.196)" style="fill: #231f20"/>
  <g>
    <path d="M112.694-125.88v16.7q-21.192-8.2-37.7-8.2-26.074,0-26.074,17.578a14.612,14.612,0,0,0,4.883,11.475Q58.69-83.985,71.874-79.4l12.3,4.3,11.719,4q27.246,9.571,27.246,32.422,0,17.383-13.916,27.783T71.971-.489q-16.211,0-41.895-6.934V-26.466q25.584,11.524,42.48,11.523,14.257,0,22.754-5.615t8.5-15.088a14.1,14.1,0,0,0-5.029-11.426q-5.031-4.2-20.752-9.961L65.136-61.72Q45.9-68.848,38.427-76.368t-7.471-20.02q0-16.894,11.475-26.172t32.275-9.277Q91.6-131.837,112.694-125.88Z" transform="translate(0 1077.196)" style="fill: #231f20"/>
    <path d="M151.464-3.517V-17.97h33.691v-96.387H151.464V-128.81h86.621v14.453H204.393V-17.97h33.691V-3.517H151.464Z" transform="translate(0 1077.196)" style="fill: #231f20"/>
    <path d="M267.772-3.517V-128.81h37.793q62.5,0,62.5,60.156,0,27.832-13.574,45.02A47.133,47.133,0,0,1,333.544-8.155q-12.451,4.639-33.154,4.639H267.772ZM287.011-17.97h9.668q27.539,0,39.209-10.937t11.67-36.719q0-26.171-10.547-37.451t-35.156-11.279H287.011V-17.97Z" transform="translate(0 1077.196)" style="fill: #231f20"/>
    <path d="M396.679-3.517V-128.81h84.668v14.453h-65.43v37.988h55.469v14.453H415.917V-17.97h69.922V-3.517h-89.16Z" transform="translate(0 1077.196)" style="fill: #231f20"/>
  </g>
  <g>
    <path d="M1491.885,1088.525V963.232h40.43q43.945,0,43.945,29.1a27.072,27.072,0,0,1-7.568,19.189q-7.569,8.057-21.143,11.475,34.863,7.129,34.863,33.105,0,14.845-10.254,23.242a34.336,34.336,0,0,1-15.137,7.373q-8.5,1.808-27.344,1.807h-37.793Zm19.238-71.094h6.738q38.867,0,38.867-21.68,0-10.644-7.52-14.355t-29.1-3.711h-8.984v39.746Zm0,56.641h17.383q19.043,0,26.221-3.906t7.178-14.355q0-12.108-11.768-19.238t-31.982-7.129h-7.031v44.629Z" transform="translate(0 1077.196)" style="fill: #231f20"/>
    <path d="M1600.381,1025.83q0-29.979,14.709-47.8t39.539-17.822q24.826,0,39.537,17.822t14.711,47.8q0,30.079-14.711,47.9t-39.537,17.822q-24.829,0-39.539-17.822T1600.381,1025.83Zm20.508,0q0,24.609,8.74,37.939t24.951,13.33q16.208,0,25-13.33t8.789-37.939q0-24.511-8.789-37.842t-25-13.33q-16.211,0-24.951,13.33T1620.889,1025.83Z" transform="translate(0 1077.196)" style="fill: #231f20"/>
    <path d="M1765.42,1088.525V977.686h-48.145V963.232H1832.9v14.453h-48.242v110.84H1765.42Z" transform="translate(0 1077.196)" style="fill: #231f20"/>
    <path d="M1885.928,1088.525V977.686h-48.145V963.232h115.625v14.453h-48.242v110.84h-19.238Z" transform="translate(0 1077.196)" style="fill: #231f20"/>
    <path d="M1961.9,1025.83q0-29.979,14.709-47.8t39.539-17.822q24.826,0,39.537,17.822t14.711,47.8q0,30.079-14.711,47.9t-39.537,17.822q-24.829,0-39.539-17.822T1961.9,1025.83Zm20.508,0q0,24.609,8.74,37.939t24.951,13.33q16.208,0,25-13.33t8.789-37.939q0-24.511-8.789-37.842t-25-13.33q-16.211,0-24.951,13.33T1982.412,1025.83Z" transform="translate(0 1077.196)" style="fill: #231f20"/>
    <path d="M2085.537,1088.525V963.232h23.145l27.539,77.148h0.2l27.051-77.148h24.121v125.293h-15.723V981.006h-0.2l-28.223,81.055h-16.211l-28.125-78.809h-0.2v105.273h-13.379Z" transform="translate(0 1077.196)" style="fill: #231f20"/>
  </g>
  <g>
    <path d="M1508.3-2.05V-112.89h-48.145v-14.453h115.625v14.453h-48.242V-2.05H1508.3Z" transform="translate(0 1077.196)" style="fill: #231f20"/>
    <path d="M1584.275-64.745q0-29.979,14.71-47.8t39.538-17.822q24.828,0,39.537,17.822t14.711,47.8q0,30.079-14.711,47.9T1638.523,0.978q-24.829,0-39.538-17.822T1584.275-64.745Zm20.508,0q0,24.609,8.74,37.939t24.951,13.33q16.208,0,25-13.33t8.789-37.939q0-24.511-8.789-37.842t-25-13.33q-16.211,0-24.951,13.33T1604.783-64.745Z" transform="translate(0 1077.196)" style="fill: #231f20"/>
    <path d="M1720.993-2.05V-127.343h40.767q21.8,0,31.088,3.906,18.967,8.2,18.966,31.641,0,19.727-15.3,30.957t-42.194,11.23h-14.083V-2.05h-19.238Zm19.238-62.012h12.012q39.06,0,39.063-27.344,0-11.522-7.373-16.5t-24.561-4.98h-19.141v48.828Z" transform="translate(0 1077.196)" style="fill: #231f20"/>
  </g>
  <g>
    <path d="M4753.4-134.583q-19.336,6.933-36.426,6.934-29.883,0-48.145-17.92t-18.262-47.119q0-29.59,18.164-47.949T4716.192-259a124.432,124.432,0,0,1,35.547,5.664v17.676q-19.336-8.886-36.133-8.887-19.434,0-31.982,14.258t-12.549,36.328q0,22.266,14.16,36.426t36.426,14.16q13.477,0,31.738-7.031v15.82Z" transform="translate(0 1077.196)" style="fill: #231f20"/>
    <path d="M4767.168-193.372q0-29.979,14.709-47.8T4821.416-259q24.826,0,39.537,17.822t14.711,47.8q0,30.079-14.711,47.9t-39.537,17.822q-24.829,0-39.539-17.822T4767.168-193.372Zm20.508,0q0,24.609,8.74,37.939t24.951,13.33q16.21,0,25-13.33t8.789-37.939q0-24.511-8.789-37.842t-25-13.33q-16.211,0-24.951,13.33T4787.676-193.372Z" transform="translate(0 1077.196)" style="fill: #231f20"/>
    <path d="M4896.075-130.677V-256.36h18.258l57.426,91.035h0.2V-256.36h15.723v125.684h-17.771l-57.815-91.878H4911.8v91.878h-15.723Z" transform="translate(0 1077.196)" style="fill: #231f20"/>
    <path d="M5052.715-130.677v-110.84h-48.145V-255.97H5120.2v14.453h-48.242v110.84h-19.238Z" transform="translate(0 1077.196)" style="fill: #231f20"/>
    <path d="M5140.606-130.677V-255.97h35.059q21.875,0,30.371,3.613,18.164,7.521,18.164,26.563,0,13.087-6.307,21.826t-21.084,16.26l43.257,57.031h-23.288l-39.551-52.148h-17.383v52.148h-19.238Zm19.238-66.6H5170q15.527,0,24.609-6.852a21.963,21.963,0,0,0,9.082-18.5q0-10.862-6.836-14.876t-25.2-4.013h-11.816v44.238Z" transform="translate(0 1077.196)" style="fill: #231f20"/>
    <path d="M5249.2-193.372q0-29.979,14.709-47.8T5303.448-259q24.826,0,39.537,17.822t14.711,47.8q0,30.079-14.711,47.9t-39.537,17.822q-24.829,0-39.539-17.822T5249.2-193.372Zm20.508,0q0,24.609,8.74,37.939T5303.4-142.1q16.21,0,25-13.33t8.789-37.939q0-24.511-8.789-37.842t-25-13.33q-16.211,0-24.951,13.33T5269.707-193.372Z" transform="translate(0 1077.196)" style="fill: #231f20"/>
    <path d="M5385.332-130.677V-255.97h19.238v110.84h67.48v14.453h-86.719Z" transform="translate(0 1077.196)" style="fill: #231f20"/>
    <path d="M5582.793-253.04v16.7q-21.192-8.2-37.7-8.2-26.074,0-26.074,17.578a14.613,14.613,0,0,0,4.883,11.475q4.882,4.346,18.066,8.936l12.3,4.3,11.719,4q27.246,9.571,27.246,32.422,0,17.383-13.916,27.783t-37.256,10.4q-16.211,0-41.895-6.934v-19.043q25.585,11.524,42.48,11.523,14.257,0,22.754-5.615t8.5-15.088a14.1,14.1,0,0,0-5.029-11.426q-5.03-4.2-20.752-9.961l-12.891-4.687q-19.239-7.128-26.709-14.648t-7.471-20.02q0-16.894,11.475-26.172T5544.8-259Q5561.7-259,5582.793-253.04Z" transform="translate(0 1077.196)" style="fill: #231f20"/>
  </g>
  <g>
    <path d="M4725.954,800V674.706h89.16v14.453h-69.922v43.164h59.668v14.453h-59.668V800h-19.238Z" transform="translate(0 1077.196)" style="fill: #231f20"/>
    <path d="M4840.31,800V674.706h35.059q21.875,0,30.371,3.613,18.164,7.521,18.164,26.563,0,13.087-6.307,21.826t-21.085,16.26L4939.77,800h-23.288l-39.551-52.148h-17.383V800H4840.31Zm19.238-66.6H4869.7q15.527,0,24.609-6.852a21.963,21.963,0,0,0,9.082-18.5q0-10.862-6.836-14.876t-25.2-4.013h-11.816V733.4Z" transform="translate(0 1077.196)" style="fill: #231f20"/>
    <path d="M4948.9,737.3q0-29.979,14.71-47.8t39.538-17.822q24.828,0,39.537,17.822t14.711,47.8q0,30.079-14.711,47.9t-39.537,17.822q-24.829,0-39.538-17.822T4948.9,737.3Zm20.508,0q0,24.609,8.74,37.939t24.951,13.33q16.208,0,25-13.33t8.789-37.939q0-24.511-8.789-37.842t-25-13.33q-16.211,0-24.951,13.33T4969.411,737.3Z" transform="translate(0 1077.196)" style="fill: #231f20"/>
    <path d="M5077.81,800V674.315h18.257l57.427,91.035h0.2V674.315h15.723V800h-17.771l-57.815-91.878h-0.293V800H5077.81Z" transform="translate(0 1077.196)" style="fill: #231f20"/>
    <path d="M5234.45,800V689.159h-48.145V674.706h115.625v14.453h-48.242V800H5234.45Z" transform="translate(0 1077.196)" style="fill: #231f20"/>
    <path d="M5442.947,800V674.706h40.43q43.945,0,43.945,29.1A27.068,27.068,0,0,1,5519.753,723q-7.569,8.057-21.143,11.475,34.863,7.129,34.863,33.105,0,14.845-10.254,23.242a34.331,34.331,0,0,1-15.137,7.373q-8.5,1.808-27.344,1.807h-37.793Zm19.238-71.094h6.738q38.867,0,38.867-21.68,0-10.644-7.52-14.355t-29.1-3.711h-8.984v39.746Zm0,56.641h17.383q19.043,0,26.221-3.906t7.178-14.355q0-12.108-11.768-19.238t-31.982-7.129h-7.031v44.629Z" transform="translate(0 1077.196)" style="fill: #231f20"/>
    <path d="M5551.443,737.3q0-29.979,14.709-47.8t39.539-17.822q24.826,0,39.537,17.822t14.711,47.8q0,30.079-14.711,47.9t-39.537,17.822q-24.829,0-39.539-17.822T5551.443,737.3Zm20.508,0q0,24.609,8.74,37.939t24.951,13.33q16.21,0,25-13.33t8.789-37.939q0-24.511-8.789-37.842t-25-13.33q-16.211,0-24.951,13.33T5571.95,737.3Z" transform="translate(0 1077.196)" style="fill: #231f20"/>
    <path d="M5716.482,800V689.159h-48.145V674.706h115.625v14.453H5735.72V800h-19.238Z" transform="translate(0 1077.196)" style="fill: #231f20"/>
    <path d="M5836.99,800V689.159h-48.145V674.706H5904.47v14.453h-48.242V800H5836.99Z" transform="translate(0 1077.196)" style="fill: #231f20"/>
    <path d="M5912.966,737.3q0-29.979,14.709-47.8t39.539-17.822q24.826,0,39.537,17.822t14.711,47.8q0,30.079-14.711,47.9t-39.537,17.822q-24.829,0-39.539-17.822T5912.966,737.3Zm20.508,0q0,24.609,8.74,37.939t24.951,13.33q16.21,0,25-13.33t8.789-37.939q0-24.511-8.789-37.842t-25-13.33q-16.211,0-24.951,13.33T5933.474,737.3Z" transform="translate(0 1077.196)" style="fill: #231f20"/>
    <path d="M6036.6,800V674.706h23.145l27.539,77.148h0.2l27.051-77.148h24.121V800h-15.723V692.48h-0.2l-28.223,81.055H6078.3l-28.125-78.809h-0.2V800H6036.6Z" transform="translate(0 1077.196)" style="fill: #231f20"/>
  </g>
  <g>
    <path d="M2990.711-98.03V-223.323h89.16v14.453H3009.95v43.164h59.668v14.453H3009.95V-98.03h-19.238Z" transform="translate(0 1077.196)" style="fill: #231f20"/>
    <path d="M3105.067-98.03V-223.323h35.059q21.875,0,30.371,3.613,18.164,7.521,18.164,26.563,0,13.087-6.307,21.826t-21.084,16.26l43.257,57.031h-23.288l-39.551-52.148H3124.3V-98.03h-19.238Zm19.238-66.6h10.156q15.527,0,24.609-6.852a21.963,21.963,0,0,0,9.082-18.5q0-10.862-6.836-14.876t-25.2-4.013H3124.3v44.238Z" transform="translate(0 1077.196)" style="fill: #231f20"/>
    <path d="M3213.66-160.726q0-29.979,14.709-47.8t39.539-17.822q24.826,0,39.537,17.822t14.711,47.8q0,30.079-14.711,47.9T3267.908-95q-24.829,0-39.539-17.822T3213.66-160.726Zm20.508,0q0,24.609,8.74,37.939t24.951,13.33q16.21,0,25-13.33t8.789-37.939q0-24.511-8.789-37.842t-25-13.33q-16.211,0-24.951,13.33T3234.168-160.726Z" transform="translate(0 1077.196)" style="fill: #231f20"/>
    <path d="M3342.567-98.03V-223.714h18.257l57.427,91.035h0.2v-91.035h15.723V-98.03H3416.4l-57.815-91.878h-0.293V-98.03h-15.723Z" transform="translate(0 1077.196)" style="fill: #231f20"/>
    <path d="M3499.207-98.03V-208.87h-48.145v-14.453h115.625v14.453h-48.242V-98.03h-19.238Z" transform="translate(0 1077.196)" style="fill: #231f20"/>
    <path d="M3740.223-98.03V-208.87h-48.145v-14.453H3807.7v14.453h-48.242V-98.03h-19.238Z" transform="translate(0 1077.196)" style="fill: #231f20"/>
    <path d="M3816.2-160.726q0-29.979,14.709-47.8t39.539-17.822q24.826,0,39.537,17.822t14.711,47.8q0,30.079-14.711,47.9T3870.448-95q-24.829,0-39.539-17.822T3816.2-160.726Zm20.508,0q0,24.609,8.74,37.939t24.951,13.33q16.21,0,25-13.33t8.789-37.939q0-24.511-8.789-37.842t-25-13.33q-16.211,0-24.951,13.33T3836.707-160.726Z" transform="translate(0 1077.196)" style="fill: #231f20"/>
    <path d="M3952.918-98.03V-223.323h40.767q21.8,0,31.089,3.906,18.965,8.2,18.965,31.641,0,19.727-15.3,30.957t-42.2,11.23h-14.082V-98.03h-19.238Zm19.238-62.012h12.012q39.062,0,39.063-27.344,0-11.522-7.373-16.5t-24.561-4.98h-19.141v48.828Z" transform="translate(0 1077.196)" style="fill: #231f20"/>
  </g>
  <g>
    <path d="M2990.711,745.219V619.926h89.16v14.453H3009.95v43.164h59.668V692H3009.95v53.223h-19.238Z" transform="translate(0 1077.196)" style="fill: #231f20"/>
    <path d="M3105.067,745.219V619.926h35.059q21.875,0,30.371,3.613,18.164,7.521,18.164,26.563,0,13.087-6.307,21.826t-21.084,16.26l43.257,57.031h-23.288l-39.551-52.148H3124.3v52.148h-19.238Zm19.238-66.6h10.156q15.527,0,24.609-6.852a21.963,21.963,0,0,0,9.082-18.5q0-10.862-6.836-14.876t-25.2-4.013H3124.3v44.238Z" transform="translate(0 1077.196)" style="fill: #231f20"/>
    <path d="M3213.66,682.523q0-29.979,14.709-47.8t39.539-17.822q24.826,0,39.537,17.822t14.711,47.8q0,30.079-14.711,47.9t-39.537,17.822q-24.829,0-39.539-17.822T3213.66,682.523Zm20.508,0q0,24.609,8.74,37.939t24.951,13.33q16.21,0,25-13.33t8.789-37.939q0-24.511-8.789-37.842t-25-13.33q-16.211,0-24.951,13.33T3234.168,682.523Z" transform="translate(0 1077.196)" style="fill: #231f20"/>
    <path d="M3342.567,745.219V619.535h18.257l57.427,91.035h0.2V619.535h15.723V745.219H3416.4l-57.815-91.878h-0.293v91.878h-15.723Z" transform="translate(0 1077.196)" style="fill: #231f20"/>
    <path d="M3499.207,745.219V634.379h-48.145V619.926h115.625v14.453h-48.242v110.84h-19.238Z" transform="translate(0 1077.196)" style="fill: #231f20"/>
    <path d="M3690.809,745.219l49.414-125.293h19.238l49.414,125.293h-20.366l-11.828-31.348h-57.259l-12.027,31.348h-16.586Zm34.369-45.8h45.746l-22.986-59.863Z" transform="translate(0 1077.196)" style="fill: #231f20"/>
    <path d="M3824.6,745.219V619.535h18.257l57.427,91.035h0.2V619.535H3916.2V745.219h-17.771l-57.815-91.878h-0.293v91.878H3824.6Z" transform="translate(0 1077.196)" style="fill: #231f20"/>
    <path d="M4039.344,622.563v17.676q-19.336-8.886-36.133-8.887-19.434,0-31.982,14.258t-12.549,36.328q0,22.169,14.16,36.377t36.133,14.209a87.793,87.793,0,0,0,12.7-1.172V698.246h-23.535V683.793h42.773V742a122.755,122.755,0,0,1-37.207,6.25q-29.1,0-47.314-18.066t-18.213-46.973q0-29.59,18.164-47.949T4003.8,616.9A124.432,124.432,0,0,1,4039.344,622.563Z" transform="translate(0 1077.196)" style="fill: #231f20"/>
    <path d="M4072.84,745.219V619.926h19.238v110.84h67.48v14.453H4072.84Z" transform="translate(0 1077.196)" style="fill: #231f20"/>
    <path d="M4192.762,745.219V619.926h84.668v14.453H4212v37.988h55.469V686.82H4212v43.945h69.922v14.453h-89.16Z" transform="translate(0 1077.196)" style="fill: #231f20"/>
  </g>
  <g>
    <path d="M3089.233,1528.843v16.7q-21.192-8.2-37.7-8.2-26.074,0-26.074,17.578a14.612,14.612,0,0,0,4.883,11.475q4.882,4.348,18.066,8.936l12.3,4.3,11.719,4q27.246,9.571,27.246,32.422,0,17.385-13.916,27.783t-37.256,10.4q-16.211,0-41.895-6.934v-19.043q25.585,11.525,42.48,11.523,14.257,0,22.754-5.615t8.5-15.088a14.1,14.1,0,0,0-5.029-11.426q-5.03-4.2-20.752-9.961L3041.674,1593q-19.239-7.128-26.709-14.648t-7.471-20.02q0-16.893,11.475-26.172t32.275-9.277Q3068.138,1522.886,3089.233,1528.843Z" transform="translate(0 1077.196)" style="fill: #231f20"/>
    <path d="M3223.9,1647.3q-19.336,6.935-36.426,6.934-29.883,0-48.145-17.92t-18.262-47.119q0-29.59,18.164-47.949t47.461-18.359a124.432,124.432,0,0,1,35.547,5.664v17.676q-19.336-8.886-36.133-8.887-19.434,0-31.982,14.258t-12.549,36.328q0,22.266,14.16,36.426t36.426,14.16q13.477,0,31.738-7.031v15.82Z" transform="translate(0 1077.196)" style="fill: #231f20"/>
    <path d="M3249.584,1651.206V1525.913h35.059q21.875,0,30.371,3.613,18.164,7.521,18.164,26.563,0,13.087-6.307,21.826t-21.084,16.26l43.257,57.031h-23.288l-39.551-52.148h-17.383v52.148h-19.238Zm19.238-66.6h10.156q15.527,0,24.609-6.852a21.963,21.963,0,0,0,9.082-18.5q0-10.86-6.836-14.875t-25.2-4.014h-11.816V1584.6Z" transform="translate(0 1077.196)" style="fill: #231f20"/>
    <path d="M3373.217,1651.206V1525.913h84.668v14.453h-65.43v37.988h55.469v14.453h-55.469v43.945h69.922v14.453h-89.16Z" transform="translate(0 1077.196)" style="fill: #231f20"/>
    <path d="M3493.725,1651.206V1525.913h84.668v14.453h-65.43v37.988h55.469v14.453h-55.469v43.945h69.922v14.453h-89.16Z" transform="translate(0 1077.196)" style="fill: #231f20"/>
    <path d="M3607.592,1651.206V1525.523h18.257l57.427,91.035h0.2v-91.035h15.723v125.684h-17.771l-57.815-91.877h-0.293v91.877h-15.723Z" transform="translate(0 1077.196)" style="fill: #231f20"/>
  </g>
  <g>
    <path d="M46.405-846.22v-225.527h63.105q39.374,0,54.668,6.5,32.7,13.538,32.7,47.813,0,23.558-11.352,39.287T147.57-948.876L225.433-846.22H183.514l-71.191-93.867H81.034v93.867H46.405ZM81.034-966.1H99.315q27.949,0,44.3-12.332t16.348-33.3q0-19.553-12.3-26.776t-45.352-7.224H81.034V-966.1Z" transform="translate(0 1077.196)" style="fill: #231f20"/>
    <path d="M268.944-846.22v-225.527h152.4v26.016H303.573v68.379h99.844v26.016H303.573v79.1H429.432v26.016H268.944Z" transform="translate(0 1077.196)" style="fill: #231f20"/>
    <path d="M491.307-846.22v-225.527H651.8v26.016H525.936v77.7h107.4v26.016h-107.4v95.8H491.307Z" transform="translate(0 1077.196)" style="fill: #231f20"/>
    <path d="M702.772-846.22v-225.527h152.4v26.016H737.4v68.379h99.843v26.016H737.4v79.1H863.26v26.016H702.772Z" transform="translate(0 1077.196)" style="fill: #231f20"/>
    <path d="M914.061-846.22v-225.527h63.105q39.374,0,54.668,6.5,32.7,13.538,32.7,47.813,0,23.558-11.352,39.287t-37.952,29.268l77.862,102.656H1051.17l-71.191-93.867H948.69v93.867H914.061ZM948.69-966.1h18.281q27.949,0,44.3-12.332t16.348-33.3q0-19.553-12.3-26.776t-45.352-7.224H948.69V-966.1Z" transform="translate(0 1077.196)" style="fill: #231f20"/>
    <path d="M1136.6-846.22v-225.527H1289v26.016H1171.229v68.379h99.844v26.016h-99.844v79.1h125.859v26.016H1136.6Z" transform="translate(0 1077.196)" style="fill: #231f20"/>
    <path d="M1341.561-846.22v-226.23h32.863l103.367,163.864h0.352V-1072.45h28.3v226.23h-31.986L1370.389-1011.6h-0.527v165.38h-28.3Z" transform="translate(0 1077.196)" style="fill: #231f20"/>
    <path d="M1735.487-853.251q-34.8,12.479-65.566,12.48-53.789,0-86.66-32.256t-32.871-84.814q0-53.262,32.7-86.309t85.43-33.047q29.881,0,63.984,10.2v31.816q-34.8-15.993-65.039-16-34.982,0-57.568,25.664T1587.3-960.126q0,40.078,25.488,65.566t65.566,25.488q24.258,0,57.129-12.656v28.477Z" transform="translate(0 1077.196)" style="fill: #231f20"/>
    <path d="M1787.342-846.22v-225.527h152.4v26.016H1821.971v68.379h99.844v26.016h-99.844v79.1H1947.83v26.016H1787.342Z" transform="translate(0 1077.196)" style="fill: #231f20"/>
  </g>
  <path d="M2456.712,66V678h-990V66h990m9-9h-1008V687h1008V57h0Z" transform="translate(0 1077.196)" style="fill: #231f20"/>
  <path d="M2564.712,1218.691v990h-1098v-990h1098m9-9h-1116v1008h1116v-1008h0Z" transform="translate(0 1077.196)" style="fill: #231f20"/>
  <g>
    <g>
      <path d="M5320.1,195.5a33.768,33.768,0,1,1-33.768,33.768A33.806,33.806,0,0,1,5320.1,195.5m0-9a42.768,42.768,0,1,0,42.768,42.768A42.768,42.768,0,0,0,5320.1,186.5h0Z" transform="translate(0 1077.196)" style="fill: #231f20"/>
      <path d="M5415.106,114.964a33.768,33.768,0,1,1-33.768,33.768,33.806,33.806,0,0,1,33.768-33.768m0-9a42.768,42.768,0,1,0,42.768,42.768,42.768,42.768,0,0,0-42.768-42.768h0Z" transform="translate(0 1077.196)" style="fill: #231f20"/>
    </g>
    <path d="M4996.561,155.232A33.768,33.768,0,1,1,4962.792,189a33.806,33.806,0,0,1,33.768-33.768m0-9A42.768,42.768,0,1,0,5039.328,189a42.768,42.768,0,0,0-42.768-42.768h0Z" transform="translate(0 1077.196)" style="fill: #231f20"/>
  </g>
  <path d="M3989.6,1803.728v702h-990v-702h990m9-9h-1008v720h1008v-720h0Z" transform="translate(0 1077.196)" style="fill: #231f20"/>
  <path d="M3800.6,1965.728v378h-612v-378h612m9-9h-630v396h630v-396h0Z" transform="translate(0 1077.196)" style="fill: #231f20"/>
</svg>
